<svg xmlns="http://www.w3.org/2000/svg" xmlns:xlink="http://www.w3.org/1999/xlink" width="342" zoomAndPan="magnify" viewBox="0 0 256.5 110.999996" height="148" preserveAspectRatio="xMidYMid meet" version="1.0"><defs><g/><clipPath id="c390e3d58b"><path d="M 7 3 L 249 3 L 249 110.890625 L 7 110.890625 Z M 7 3 " clip-rule="nonzero"/></clipPath><clipPath id="50a275e3c5"><path d="M 6.480469 0.109375 L 248 0.109375 L 248 107 L 6.480469 107 Z M 6.480469 0.109375 " clip-rule="nonzero"/></clipPath><clipPath id="83ae1f01e1"><path d="M 8 3 L 249.757812 3 L 249.757812 109 L 8 109 Z M 8 3 " clip-rule="nonzero"/></clipPath><clipPath id="a4ca39090e"><rect x="0" width="155" y="0" height="94"/></clipPath><clipPath id="9bcf907b0c"><rect x="0" width="82" y="0" height="94"/></clipPath></defs><g clip-path="url(#c390e3d58b)"><path fill="#000000" d="M 7.632812 104.824219 L 7.652344 102.828125 L 7.609375 94.648438 C 7.59375 93.265625 7.621094 93.613281 7.6875 95.699219 L 7.753906 91.027344 L 7.941406 32.601562 C 7.933594 30.777344 7.980469 30.707031 8.085938 32.394531 L 8.121094 26.664062 L 8.007812 89.9375 C 8 91.023438 7.996094 90.746094 7.992188 89.101562 L 7.980469 67.421875 L 7.941406 67.292969 L 7.90625 69.078125 L 7.917969 99.261719 L 7.933594 99.496094 L 7.953125 98.144531 L 7.972656 94.570312 C 7.996094 98.4375 8.03125 99.230469 8.082031 96.957031 L 8.179688 103.058594 C 8.191406 101.203125 8.222656 100.777344 8.269531 101.777344 L 8.441406 106.425781 L 8.636719 79.039062 L 8.613281 95.425781 L 8.71875 86.332031 L 8.742188 92.71875 C 8.75 93.386719 8.757812 93.414062 8.765625 92.796875 L 8.980469 56.15625 C 8.992188 55.019531 8.996094 55.175781 8.996094 56.632812 L 8.988281 65.890625 C 9 66.554688 9.011719 66.125 9.019531 64.601562 L 9.171875 3.027344 L 8.710938 5.070312 L 21.265625 5.171875 L 7.546875 5.101562 L 9.210938 4.355469 L 9.191406 22.136719 L 9.292969 3.136719 L 8.714844 5.1875 L 45.785156 5.386719 C 50.796875 5.394531 50.109375 5.371094 43.722656 5.320312 L 47.585938 5.328125 L 82.683594 5.625 C 129.980469 5.632812 129.945312 5.566406 82.582031 5.421875 L 171.503906 5.652344 C 168.8125 5.597656 168.011719 5.566406 169.105469 5.554688 L 184.917969 5.585938 C 172.011719 5.527344 172.570312 5.46875 186.59375 5.417969 L 242.722656 5.53125 L 245.113281 4.371094 L 245.101562 11.476562 C 244.542969 9.792969 245.132812 7.804688 246.867188 5.507812 C 241.691406 5.496094 237.816406 5.445312 235.242188 5.351562 L 247.71875 5.167969 L 245.496094 4.980469 L 245.398438 107.839844 L 246.148438 105.75 C 149.65625 105.605469 97.878906 105.464844 90.816406 105.332031 L 246.210938 105.839844 L 245.492188 107.179688 L 245.664062 24.300781 L 245.640625 107.09375 L 246.609375 105.992188 L 60.558594 105.476562 C 58.964844 105.46875 58.824219 105.484375 60.132812 105.511719 L 64.976562 105.605469 L 74.570312 105.714844 L 34.105469 105.527344 L 71.511719 105.878906 L 7.417969 105.457031 L 45.316406 105.867188 L 32.808594 105.859375 C 30.375 105.863281 29.980469 105.878906 31.625 105.902344 L 219.113281 106.730469 L 144.714844 106.605469 C 136.570312 106.589844 134.003906 106.570312 137.007812 106.542969 L 121.953125 106.492188 L 79.519531 106.414062 L 74.367188 106.433594 L 110.339844 106.628906 L 117.542969 106.726562 L 118.402344 106.765625 L 111.890625 106.761719 L 113.914062 106.792969 L 205.152344 107.070312 C 207.5 107.078125 208.363281 107.089844 207.75 107.105469 L 202.710938 107.101562 C 201.121094 107.101562 200.613281 107.109375 201.1875 107.125 L 221.386719 107.238281 L 208.894531 107.214844 L 203.863281 107.238281 L 204.289062 107.242188 L 244.46875 107.394531 L 224.640625 107.480469 C 222.851562 107.5 223.78125 107.519531 227.433594 107.539062 L 226.066406 107.550781 L 211.1875 107.601562 L 211.878906 107.640625 L 206.785156 107.722656 L 212.101562 107.773438 L 189.410156 107.90625 L 194.898438 107.96875 L 153.804688 108.492188 L 191.375 108.066406 C 197.941406 108.007812 199.488281 108.015625 196.011719 108.09375 L 156.808594 108.601562 L 246.230469 107.578125 L 247.210938 108.117188 L 247.054688 89.972656 L 247.140625 64.28125 L 247.179688 84.464844 L 247.253906 76.386719 L 247.21875 86.738281 L 247.292969 92.222656 L 247.308594 88.675781 C 247.328125 87.160156 247.34375 86.867188 247.351562 87.796875 L 247.367188 85.8125 L 247.359375 76.75 L 247.285156 72.347656 L 247.25 73.894531 L 247.222656 61.4375 L 247.304688 62.878906 L 247.261719 54.140625 L 247.828125 97.21875 C 247.214844 54.175781 247.046875 25.640625 247.320312 11.609375 L 247.378906 23.757812 L 247.4375 27.027344 C 247.464844 25.425781 247.484375 25.515625 247.5 27.289062 L 247.570312 34.855469 L 247.65625 52.230469 L 247.71875 49.363281 L 248.445312 107.933594 L 245.375 108.824219 L 225.808594 109.03125 L 246.6875 108.746094 L 248.371094 107.191406 L 248.085938 86.527344 L 248.308594 106.195312 L 247.714844 108.683594 L 199.332031 109.253906 L 153.351562 109.878906 C 152.410156 109.890625 152.179688 109.902344 152.664062 109.90625 L 165.453125 109.777344 L 153.976562 109.9375 L 115.242188 110.355469 C 108.246094 110.441406 110.824219 110.4375 122.976562 110.355469 L 110.441406 110.523438 L 112.296875 110.535156 L 79.851562 110.890625 L 246.867188 108.902344 L 248.523438 107.03125 L 247.339844 3.765625 L 247.289062 3.339844 L 240.863281 3.378906 L 247.488281 3.273438 L 248.265625 77.921875 L 247.4375 3.046875 L 246.453125 3.242188 L 233.144531 3.371094 L 231.9375 3.375 L 129.546875 3.476562 L 127.734375 3.484375 L 135.640625 3.5625 L 112.578125 3.527344 C 111.734375 3.527344 112.058594 3.53125 113.550781 3.539062 L 126.890625 3.582031 L 174.292969 3.699219 C 177.816406 3.726562 172.355469 3.753906 157.914062 3.792969 C 119.722656 3.757812 94.738281 3.644531 82.960938 3.453125 C 82.945312 3.476562 86.496094 3.523438 93.617188 3.597656 L 85.808594 3.613281 C 84.820312 3.636719 85.0625 3.660156 86.535156 3.675781 L 90.902344 3.65625 C 93.34375 3.71875 93.496094 3.742188 91.359375 3.734375 C 77.402344 3.765625 54.851562 3.652344 23.703125 3.402344 L 49.53125 3.675781 C 36 3.703125 26.546875 3.644531 21.179688 3.496094 L 19.113281 3.511719 C 20.992188 3.554688 21.296875 3.574219 20.027344 3.5625 L 7.582031 3.492188 L 7.460938 26.390625 C 7.472656 28.203125 7.496094 28.078125 7.53125 26.011719 L 7.667969 34.019531 L 7.53125 74.066406 L 7.582031 105.808594 L 7.632812 104.824219 " fill-opacity="1" fill-rule="nonzero"/></g><g clip-path="url(#50a275e3c5)"><path fill="#000000" d="M 247.394531 6.179688 L 247.375 8.167969 L 247.421875 16.339844 C 247.433594 17.65625 247.40625 17.324219 247.335938 15.339844 L 247.273438 19.992188 L 247.085938 78.328125 L 247.054688 79.464844 C 247.007812 77.894531 246.96875 77.636719 246.933594 78.699219 L 246.9375 83.449219 C 246.90625 84.351562 246.882812 84.152344 246.867188 82.855469 L 247.019531 21.867188 L 247.03125 20.515625 L 247.039062 24.214844 L 247.042969 41.832031 C 247.050781 44.15625 247.070312 44.632812 247.097656 43.257812 L 247.128906 39.699219 L 247.097656 11.367188 L 247.015625 15.765625 L 246.992188 11.710938 L 246.953125 13.574219 L 246.855469 7.621094 L 246.769531 9.949219 L 246.605469 3.925781 L 246.402344 31.523438 C 246.394531 32.023438 246.390625 31.96875 246.386719 31.355469 L 246.386719 30.074219 L 246.414062 15.839844 L 246.394531 15.589844 L 246.3125 24.527344 L 246.289062 24.511719 L 246.285156 18.351562 C 246.277344 17.664062 246.269531 17.484375 246.269531 17.808594 L 246.046875 54.597656 C 246.035156 55.738281 246.03125 55.578125 246.03125 54.113281 L 246.042969 44.890625 C 246.039062 44.292969 246.03125 44.433594 246.015625 45.3125 L 245.867188 106.050781 L 246.519531 104.234375 L 232.5 104.136719 L 246.933594 104.195312 L 245.820312 105.484375 L 245.828125 88.382812 L 245.742188 106.324219 L 246.167969 104.113281 L 210.929688 103.917969 L 204.421875 103.90625 L 206.929688 103.941406 C 208.832031 103.976562 208.878906 103.988281 207.078125 103.96875 L 162.910156 103.632812 C 125.121094 103.695312 128.054688 103.777344 171.707031 103.871094 L 82.742188 103.644531 L 85.910156 103.714844 L 85.347656 103.738281 L 70.199219 103.710938 C 82.621094 103.789062 82.5 103.84375 69.839844 103.871094 L 11.320312 103.757812 C 9.929688 101.027344 9.460938 99.089844 9.917969 97.945312 L 9.878906 105.832031 L 9.503906 103.789062 L 19.285156 103.972656 L 8.054688 104.121094 L 9.53125 105.210938 L 9.625 4.199219 L 8.023438 5.265625 C 104.460938 5.410156 156.683594 5.550781 164.695312 5.6875 L 7.628906 5.175781 L 9.53125 5.183594 L 9.359375 85.128906 L 9.382812 3.878906 L 8.46875 5.023438 L 194.914062 5.542969 C 196.355469 5.546875 196.398438 5.53125 195.039062 5.503906 L 190.199219 5.410156 C 182.667969 5.335938 179.546875 5.296875 180.84375 5.304688 L 221.273438 5.5 L 186.484375 5.1875 C 183.503906 5.15625 183.035156 5.144531 185.082031 5.148438 L 247.605469 5.5625 L 210.339844 5.152344 L 221.960938 5.160156 C 225.117188 5.144531 225.652344 5.132812 223.5625 5.117188 L 36.929688 4.285156 L 112.375 4.417969 L 119.292969 4.441406 C 117.582031 4.464844 117.609375 4.476562 119.375 4.476562 L 135.050781 4.527344 L 181.226562 4.585938 L 145.992188 4.394531 L 138.058594 4.292969 L 137.167969 4.25 L 143.660156 4.253906 L 141.625 4.226562 L 51.351562 3.953125 L 47.996094 3.921875 C 53.703125 3.925781 55.886719 3.914062 54.546875 3.890625 L 34.699219 3.777344 L 52.132812 3.777344 L 11.242188 3.632812 C 13.03125 3.574219 20.039062 3.542969 32.261719 3.53125 C 31.722656 3.5 30.585938 3.484375 28.859375 3.484375 L 29.328125 3.46875 L 43.117188 3.4375 L 49.363281 3.300781 L 44.210938 3.25 L 45.085938 3.234375 L 66.941406 3.117188 L 61.316406 3.054688 L 62.679688 3.027344 L 101.863281 2.527344 L 58.1875 2.957031 L 98.890625 2.417969 L 7.476562 3.46875 L 7.972656 16.550781 L 7.890625 45.28125 L 7.851562 25.609375 C 7.816406 24.011719 7.789062 26.441406 7.773438 32.890625 L 7.738281 17.433594 L 7.699219 22.667969 C 7.683594 21.292969 7.671875 21.535156 7.664062 23.398438 L 7.664062 32.71875 L 7.738281 37.207031 L 7.777344 36.117188 L 7.804688 48 L 7.71875 46.265625 L 7.765625 55.40625 L 7.378906 18.929688 L 7.285156 14.105469 L 7.257812 14.417969 L 7.199219 12.71875 L 7.789062 66.257812 L 7.789062 68.050781 C 7.769531 67.796875 7.75 68.089844 7.734375 68.9375 L 7.71875 70.890625 L 7.703125 97.703125 L 7.65625 86.351562 L 7.605469 83.179688 C 7.578125 82.136719 7.558594 82.085938 7.542969 83.019531 L 7.453125 73.855469 L 7.378906 57.972656 L 7.355469 56.652344 L 7.34375 60.632812 L 7.277344 57.957031 L 6.609375 3.8125 L 7.839844 2.230469 L 30.308594 1.988281 L 7.9375 2.289062 L 6.675781 4.238281 L 6.941406 23.175781 L 6.71875 3.71875 L 8.417969 2.335938 L 56.808594 1.757812 L 101.292969 1.15625 C 103.542969 1.121094 104.089844 1.105469 102.9375 1.113281 L 90.355469 1.242188 L 100.492188 1.097656 L 143.335938 0.625 C 146.59375 0.585938 143.058594 0.597656 132.726562 0.65625 L 144.238281 0.511719 C 143.484375 0.503906 143.546875 0.488281 144.421875 0.464844 C 146.449219 0.503906 156.820312 0.386719 175.539062 0.121094 L 8.988281 2.121094 L 6.507812 3.164062 L 7.695312 106.226562 L 8.378906 105.945312 L 14.21875 105.921875 L 8.449219 106.011719 L 7.625 105.707031 L 6.761719 31.433594 L 7.589844 106.300781 L 8.628906 106.046875 L 20.820312 105.925781 L 125.410156 105.816406 C 126.820312 105.8125 127.191406 105.808594 126.53125 105.804688 L 119.519531 105.734375 L 142.050781 105.765625 C 131.097656 105.714844 110.6875 105.660156 80.828125 105.59375 C 76.578125 105.570312 81.679688 105.539062 96.136719 105.5 C 134.402344 105.53125 159.4375 105.644531 171.238281 105.839844 C 171.261719 105.816406 167.714844 105.769531 160.605469 105.695312 L 168.484375 105.679688 C 169.371094 105.652344 169.082031 105.632812 167.609375 105.617188 L 163.261719 105.632812 C 160.824219 105.574219 160.75 105.546875 163.039062 105.558594 L 230.132812 105.890625 L 205.578125 105.613281 L 231.921875 105.792969 L 234.574219 105.757812 C 233.246094 105.742188 232.882812 105.734375 233.484375 105.730469 L 247.839844 105.808594 L 247.453125 103.199219 L 247.566406 83.859375 L 247.550781 82.929688 C 247.523438 83.8125 247.503906 83.878906 247.492188 83.121094 L 247.402344 80.277344 L 247.359375 75.714844 L 247.496094 41.285156 L 247.453125 6.542969 C 247.398438 5.472656 247.378906 5.351562 247.394531 6.179688 " fill-opacity="1" fill-rule="nonzero"/></g><g clip-path="url(#83ae1f01e1)"><path fill="#000000" d="M 248.148438 102.214844 L 248.167969 100.261719 L 248.121094 92.125 C 248.132812 91.007812 248.144531 91.441406 248.15625 93.429688 L 248.226562 92.707031 L 248.261719 89.523438 L 248.460938 31.714844 C 248.464844 30.34375 248.503906 30.539062 248.574219 32.300781 L 248.613281 30.648438 L 248.5625 30.828125 L 248.582031 27.796875 L 248.621094 26.589844 C 248.652344 26.28125 248.667969 26.386719 248.671875 26.902344 L 248.675781 28.339844 L 248.519531 87.660156 C 248.515625 88.851562 248.511719 88.621094 248.503906 86.96875 L 248.503906 83.535156 L 248.5 67.992188 L 248.484375 65.457031 L 248.445312 66.035156 L 248.410156 69.5 L 248.433594 96.835938 L 248.449219 97.019531 L 248.46875 95.585938 L 248.496094 91.789062 L 248.53125 96.46875 L 248.597656 94.632812 L 248.679688 100.257812 L 248.753906 98.273438 L 248.917969 104.476562 L 249.152344 77.246094 L 249.132812 93.457031 L 249.242188 84.207031 L 249.253906 89.785156 C 249.257812 91.171875 249.265625 91.328125 249.285156 90.246094 L 249.308594 87.640625 L 249.496094 54.839844 C 249.511719 53.0625 249.515625 56.347656 249.503906 64.699219 C 249.527344 64.664062 249.539062 63.488281 249.542969 61.167969 L 249.660156 6.394531 L 245.753906 3.945312 L 230.90625 3.824219 L 246.617188 3.902344 L 249.714844 7.179688 L 249.71875 22.078125 L 249.785156 7.425781 L 247.007812 3.832031 L 209.71875 3.621094 L 203.578125 3.609375 L 206.441406 3.648438 C 207.707031 3.679688 207.523438 3.6875 205.890625 3.671875 L 163.296875 3.335938 C 125.695312 3.382812 128.507812 3.464844 171.730469 3.574219 L 87.847656 3.351562 L 85.246094 3.359375 C 88.550781 3.417969 89.164062 3.449219 87.082031 3.441406 L 72.257812 3.40625 C 85.230469 3.472656 84.578125 3.53125 70.292969 3.578125 L 15.765625 3.460938 L 8.785156 10.847656 L 8.785156 14.597656 L 8.824219 7.800781 L 13.441406 3.492188 L 23.078125 3.621094 L 11.5625 3.824219 L 9.175781 8.117188 L 9.089844 103.503906 L 11.722656 107.777344 C 107.324219 107.925781 158.851562 108.066406 166.300781 108.203125 L 135.367188 107.945312 L 12.507812 107.6875 L 9.175781 103.746094 L 9.34375 26.886719 L 9.328125 103.65625 L 11.894531 107.535156 L 195.808594 108.058594 C 197.21875 108.058594 197.21875 108.046875 195.816406 108.015625 L 190.960938 107.921875 L 183.019531 107.835938 C 181.957031 107.828125 181.695312 107.820312 182.234375 107.820312 L 221.464844 108.015625 L 185.003906 107.652344 L 247.085938 108.078125 L 210.359375 107.664062 C 220.160156 107.6875 224.890625 107.679688 224.554688 107.636719 L 41.914062 106.804688 L 115.050781 106.929688 L 122.113281 106.957031 C 120.417969 106.980469 120.484375 106.992188 122.304688 106.992188 L 137.976562 107.042969 L 182.367188 107.101562 L 147.648438 106.90625 L 139.453125 106.769531 L 144.734375 106.78125 C 146.457031 106.78125 146.207031 106.769531 143.988281 106.742188 L 55.761719 106.464844 L 52.738281 106.429688 L 59.242188 106.425781 C 59.835938 106.417969 59.863281 106.410156 59.320312 106.40625 L 39.699219 106.292969 L 52.492188 106.320312 L 56.691406 106.292969 L 56.378906 106.289062 L 17.0625 106.148438 C 18.492188 106.09375 25.300781 106.058594 37.484375 106.046875 C 33.429688 106 32.652344 105.980469 35.148438 105.984375 L 48.414062 105.949219 C 50.601562 105.9375 50.710938 105.910156 48.742188 105.871094 L 53.738281 105.828125 L 49.394531 105.753906 L 71.050781 105.628906 L 65.410156 105.566406 C 93.027344 105.222656 105.90625 105.050781 104.046875 105.046875 L 68.695312 105.46875 C 63.066406 105.523438 61.226562 105.519531 63.179688 105.457031 L 102.421875 104.933594 L 11.792969 106 L 10.832031 103.710938 L 10.734375 93.707031 L 10.820312 65.601562 L 10.871094 85.425781 L 10.9375 77.609375 L 10.972656 92.792969 L 10.988281 89.285156 C 11.011719 87.871094 11.023438 87.558594 11.03125 88.351562 L 11.046875 86.191406 L 11.039062 77.367188 L 10.953125 73.496094 L 10.925781 75.046875 L 10.902344 64.007812 C 10.894531 61.898438 10.925781 62.414062 10.992188 65.550781 L 10.933594 56.421875 L 11.316406 90.542969 L 11.4375 96.527344 C 11.457031 95.484375 11.476562 95.421875 11.5 96.339844 C 10.898438 56.664062 10.734375 29.402344 11.003906 14.550781 L 11.050781 25.75 L 11.105469 28.976562 C 11.121094 28.675781 11.144531 28.738281 11.171875 29.164062 L 11.261719 38.546875 L 11.328125 52.707031 L 11.339844 54.117188 L 11.351562 51.511719 L 11.410156 51.757812 L 12.074219 103.867188 L 11.488281 104.769531 L 35.433594 104.503906 L 12.019531 104.742188 L 11.761719 87.179688 L 11.96875 104.589844 L 12.589844 104.871094 L 61.261719 104.273438 L 105.695312 103.652344 C 106.640625 103.640625 106.832031 103.632812 106.273438 103.625 L 93.917969 103.757812 L 104.398438 103.605469 L 145.496094 103.140625 C 148.679688 103.101562 145.238281 103.113281 135.175781 103.179688 L 147.230469 103.011719 L 145.09375 103.007812 C 149.839844 103.003906 160.453125 102.882812 176.925781 102.636719 L 12.960938 104.660156 L 12.175781 105.117188 L 11.019531 6.882812 L 12.011719 5.65625 L 18.25 5.621094 L 13.035156 5.707031 L 11.082031 6.582031 L 11.945312 78.835938 L 11.128906 7.121094 L 11.945312 5.761719 L 26.65625 5.621094 L 126.929688 5.515625 L 127.847656 5.511719 L 120.128906 5.433594 L 142.738281 5.46875 C 131.324219 5.417969 111.074219 5.355469 81.992188 5.289062 C 80.84375 5.273438 82.960938 5.257812 88.347656 5.230469 L 102.839844 5.195312 C 137.929688 5.246094 160.585938 5.363281 170.808594 5.539062 C 172.023438 5.546875 171.535156 5.53125 169.355469 5.5 L 161.3125 5.402344 L 169.058594 5.351562 C 167.1875 5.300781 165.347656 5.292969 163.53125 5.339844 C 161.054688 5.277344 160.964844 5.25 163.253906 5.257812 L 227.710938 5.585938 C 229.195312 5.605469 228.667969 5.589844 226.132812 5.539062 L 222.332031 5.492188 L 203.59375 5.324219 L 216.964844 5.328125 C 223.402344 5.347656 227.835938 5.40625 230.265625 5.496094 L 232.847656 5.460938 C 231.570312 5.445312 231.253906 5.433594 231.898438 5.429688 L 246.710938 5.519531 L 248.078125 8.742188 L 247.972656 26.25 C 247.96875 27.609375 247.992188 27.796875 248.046875 26.808594 L 248.132812 29.851562 L 248.183594 34.261719 L 248.042969 68.652344 L 248.089844 101.714844 C 248.144531 103.171875 248.164062 103.339844 248.148438 102.214844 " fill-opacity="1" fill-rule="nonzero"/></g><g transform="matrix(1, 0, 0, 1, 12, 14)"><g clip-path="url(#a4ca39090e)"><g fill="#000000" fill-opacity="1"><g transform="translate(1.578371, 64.619284)"><g><path d="M 33.984375 10.984375 L 24.4375 -19.875 L 23.796875 12.015625 L 3.203125 12.015625 L 6.96875 -60.109375 L 31.5 -60.109375 L 42.71875 -24.921875 L 54.09375 -60.109375 L 78.625 -60.109375 L 82.390625 12.015625 L 61.78125 12.015625 L 61.140625 -19.875 L 51.609375 10.984375 Z M 33.984375 10.984375 "/></g></g></g><g fill="#000000" fill-opacity="1"><g transform="translate(86.923331, 64.619284)"><g><path d="M 26.765625 -60.109375 C 31.835938 -60.109375 36.59375 -59.554688 41.03125 -58.453125 C 45.46875 -57.359375 49.34375 -55.445312 52.65625 -52.71875 C 55.96875 -50 58.570312 -46.300781 60.46875 -41.625 C 62.363281 -36.957031 63.3125 -31.070312 63.3125 -23.96875 C 63.3125 -11.675781 60.316406 -2.609375 54.328125 3.234375 C 48.347656 9.085938 39.347656 12.015625 27.328125 12.015625 L 4 12.015625 L 4 -60.109375 Z M 25.078125 -40.46875 L 25.078125 -7.78125 L 25.890625 -7.78125 C 28.503906 -7.78125 30.835938 -8.019531 32.890625 -8.5 C 34.953125 -8.976562 36.691406 -9.832031 38.109375 -11.0625 C 39.523438 -12.289062 40.59375 -13.945312 41.3125 -16.03125 C 42.03125 -18.113281 42.390625 -20.757812 42.390625 -23.96875 C 42.390625 -27.488281 41.972656 -30.332031 41.140625 -32.5 C 40.316406 -34.664062 39.171875 -36.332031 37.703125 -37.5 C 36.234375 -38.675781 34.507812 -39.460938 32.53125 -39.859375 C 30.5625 -40.265625 28.453125 -40.46875 26.203125 -40.46875 Z M 25.078125 -40.46875 "/></g></g></g></g></g><g transform="matrix(1, 0, 0, 1, 162, 14)"><g clip-path="url(#9bcf907b0c)"><g fill="#000000" fill-opacity="1"><g transform="translate(0.621094, 64.619284)"><g><path d="M 4 -16.421875 L 29.25 -16.421875 L 29.25 -18.4375 L 3.203125 -18.4375 L 3.203125 -29.65625 L 76.9375 -29.65625 L 76.9375 -18.4375 L 50.890625 -18.4375 L 50.890625 -16.421875 L 76.140625 -16.421875 L 76.140625 1.84375 L 27.09375 1.84375 L 27.09375 3.84375 L 76.140625 3.84375 L 76.140625 12.015625 L 4 12.015625 L 4 -6.25 L 53.046875 -6.25 L 53.046875 -8.25 L 4 -8.25 Z M 4 -60.109375 L 76.140625 -60.109375 L 76.140625 -41.828125 L 27.09375 -41.828125 L 27.09375 -39.828125 L 76.140625 -39.828125 L 76.140625 -31.65625 L 4 -31.65625 L 4 -49.921875 L 53.046875 -49.921875 L 53.046875 -51.9375 L 4 -51.9375 Z M 4 -60.109375 "/></g></g></g></g></g></svg>